<svg width="406" height="65" viewBox="0 0 406 65" fill="none" xmlns="http://www.w3.org/2000/svg">
<path d="M108.77 32.7244H103.457C103.306 31.8532 103.027 31.0814 102.619 30.4091C102.212 29.7273 101.705 29.1496 101.099 28.6761C100.493 28.2027 99.8021 27.8475 99.0256 27.6108C98.2585 27.3646 97.4299 27.2415 96.5398 27.2415C94.9583 27.2415 93.5568 27.6392 92.3352 28.4347C91.1136 29.2206 90.1572 30.3759 89.4659 31.9006C88.7746 33.4157 88.429 35.267 88.429 37.4545C88.429 39.6799 88.7746 41.5549 89.4659 43.0795C90.1667 44.5947 91.1231 45.7405 92.3352 46.517C93.5568 47.2841 94.9536 47.6676 96.5256 47.6676C97.3968 47.6676 98.2112 47.554 98.9688 47.3267C99.7358 47.09 100.422 46.7443 101.028 46.2898C101.644 45.8352 102.16 45.2765 102.577 44.6136C103.003 43.9508 103.296 43.1932 103.457 42.3409L108.77 42.3693C108.571 43.7519 108.14 45.0492 107.477 46.2614C106.824 47.4735 105.967 48.5436 104.906 49.4716C103.846 50.3902 102.605 51.1098 101.185 51.6307C99.7642 52.142 98.1875 52.3977 96.4545 52.3977C93.8977 52.3977 91.6155 51.8059 89.608 50.6222C87.6004 49.4384 86.0189 47.7292 84.8636 45.4943C83.7083 43.2595 83.1307 40.5795 83.1307 37.4545C83.1307 34.3201 83.7131 31.6402 84.8778 29.4148C86.0426 27.1799 87.6288 25.4706 89.6364 24.2869C91.6439 23.1032 93.9167 22.5114 96.4545 22.5114C98.0739 22.5114 99.5795 22.7386 100.972 23.1932C102.364 23.6477 103.604 24.3153 104.693 25.196C105.782 26.0672 106.677 27.1373 107.378 28.4062C108.088 29.6657 108.552 31.1051 108.77 32.7244ZM113.596 52V22.9091H132.516V27.3267H118.866V35.2244H131.536V39.642H118.866V47.5824H132.63V52H113.596ZM137.893 52V22.9091H148.802C151.037 22.9091 152.912 23.2973 154.427 24.0739C155.951 24.8504 157.102 25.9394 157.879 27.3409C158.665 28.733 159.058 30.357 159.058 32.2131C159.058 34.0786 158.66 35.6979 157.864 37.071C157.078 38.4347 155.918 39.4905 154.384 40.2386C152.85 40.9773 150.966 41.3466 148.731 41.3466H140.961V36.9716H148.021C149.327 36.9716 150.397 36.7917 151.231 36.4318C152.064 36.0625 152.68 35.5275 153.077 34.8267C153.485 34.1165 153.688 33.2453 153.688 32.2131C153.688 31.1809 153.485 30.3002 153.077 29.571C152.67 28.8324 152.05 28.2737 151.217 27.8949C150.383 27.5066 149.308 27.3125 147.992 27.3125H143.163V52H137.893ZM152.921 38.8182L160.123 52H154.242L147.168 38.8182H152.921ZM162.63 27.3267V22.9091H185.84V27.3267H176.849V52H171.621V27.3267H162.63ZM190.535 52H184.91L195.151 22.9091H201.657L211.913 52H206.288L198.518 28.875H198.29L190.535 52ZM190.719 40.5938H206.06V44.8267H190.719V40.5938ZM221.014 22.9091V52H215.744V22.9091H221.014ZM250.627 22.9091V52H245.94L232.232 32.1847H231.991V52H226.721V22.9091H231.437L245.13 42.7386H245.386V22.9091H250.627ZM272.179 30.9062C272.046 29.6657 271.488 28.6998 270.503 28.0085C269.527 27.3172 268.259 26.9716 266.696 26.9716C265.598 26.9716 264.655 27.1373 263.869 27.4688C263.083 27.8002 262.482 28.25 262.065 28.8182C261.649 29.3864 261.436 30.035 261.426 30.7642C261.426 31.3703 261.563 31.8958 261.838 32.3409C262.122 32.786 262.506 33.1648 262.989 33.4773C263.472 33.7803 264.007 34.036 264.594 34.2443C265.181 34.4527 265.773 34.6278 266.369 34.7699L269.097 35.4517C270.195 35.7074 271.251 36.053 272.264 36.4886C273.287 36.9242 274.201 37.4735 275.006 38.1364C275.82 38.7992 276.464 39.5994 276.938 40.5369C277.411 41.4744 277.648 42.5729 277.648 43.8324C277.648 45.5369 277.212 47.0379 276.341 48.3352C275.47 49.6231 274.21 50.6316 272.562 51.3608C270.924 52.0805 268.94 52.4403 266.611 52.4403C264.348 52.4403 262.383 52.09 260.716 51.3892C259.059 50.6884 257.761 49.6657 256.824 48.321C255.896 46.9763 255.394 45.3381 255.318 43.4062H260.503C260.579 44.4195 260.891 45.2623 261.44 45.9347C261.99 46.607 262.705 47.1089 263.585 47.4403C264.475 47.7718 265.47 47.9375 266.568 47.9375C267.714 47.9375 268.718 47.767 269.58 47.4261C270.451 47.0758 271.133 46.5928 271.625 45.9773C272.117 45.3523 272.368 44.6231 272.378 43.7898C272.368 43.0322 272.146 42.4072 271.71 41.9148C271.275 41.4129 270.664 40.9962 269.878 40.6648C269.101 40.3239 268.192 40.0208 267.151 39.7557L263.841 38.9034C261.445 38.2879 259.551 37.3551 258.159 36.1051C256.777 34.8456 256.085 33.1742 256.085 31.0909C256.085 29.3769 256.549 27.8759 257.477 26.5881C258.415 25.3002 259.688 24.3011 261.298 23.5909C262.908 22.8712 264.731 22.5114 266.767 22.5114C268.831 22.5114 270.64 22.8712 272.193 23.5909C273.756 24.3011 274.982 25.2907 275.872 26.5597C276.762 27.8191 277.222 29.268 277.25 30.9062H272.179ZM282.346 52V22.9091H287.616V35.2244H301.096V22.9091H306.38V52H301.096V39.642H287.616V52H282.346ZM315.847 52H310.222L320.464 22.9091H326.969L337.225 52H331.6L323.83 28.875H323.603L315.847 52ZM316.032 40.5938H331.373V44.8267H316.032V40.5938ZM341.057 52V22.9091H351.966C354.201 22.9091 356.076 23.2973 357.591 24.0739C359.116 24.8504 360.266 25.9394 361.043 27.3409C361.829 28.733 362.222 30.357 362.222 32.2131C362.222 34.0786 361.824 35.6979 361.028 37.071C360.242 38.4347 359.082 39.4905 357.548 40.2386C356.014 40.9773 354.13 41.3466 351.895 41.3466H344.125V36.9716H351.185C352.491 36.9716 353.562 36.7917 354.395 36.4318C355.228 36.0625 355.844 35.5275 356.241 34.8267C356.649 34.1165 356.852 33.2453 356.852 32.2131C356.852 31.1809 356.649 30.3002 356.241 29.571C355.834 28.8324 355.214 28.2737 354.381 27.8949C353.547 27.5066 352.473 27.3125 351.156 27.3125H346.327V52H341.057ZM356.085 38.8182L363.287 52H357.406L350.332 38.8182H356.085ZM367.072 52V22.9091H385.993V27.3267H372.342V35.2244H385.013V39.642H372.342V47.5824H386.107V52H367.072Z" fill="#3B82F6"/>
<circle cx="42" cy="50" r="15" fill="black"/>
<circle cx="46" cy="35" r="15" fill="black"/>
<circle cx="40" cy="34" r="15" fill="black"/>
<circle cx="15" cy="38" r="15" fill="black"/>
<circle cx="23" cy="25" r="15" fill="black"/>
<circle cx="34" cy="15" r="15" fill="black"/>
<circle cx="23" cy="49" r="15" fill="black"/>
<circle cx="50" cy="23" r="15" fill="black"/>
<circle cx="25.7206" cy="23.7206" r="5" transform="rotate(9 25.7206 23.7206)" fill="white"/>
<circle cx="25.7206" cy="44.7206" r="5" transform="rotate(9 25.7206 44.7206)" fill="white"/>
<circle cx="42.7206" cy="33.7206" r="5" transform="rotate(9 42.7206 33.7206)" fill="white"/>
<rect x="26" y="42.7589" width="19.5177" height="3" transform="rotate(-30 26 42.7589)" fill="#FFFDFD"/>
<rect x="42.358" y="34.7999" width="20.9897" height="3" transform="rotate(-151 42.358 34.7999)" fill="#FFFDFD"/>
</svg>
